<svg id="Layer_1" data-name="Layer 1" xmlns="http://www.w3.org/2000/svg" viewBox="0 0 63.56 49.35"><defs><style>.cls-1{fill:#235d38;}.cls-1,.cls-2,.cls-3,.cls-4,.cls-5,.cls-6,.cls-7{fill-rule:evenodd;}.cls-2{fill:#ffd100;}.cls-3{fill:#c32032;}.cls-4{fill:#7a853a;}.cls-5{fill:#6c3a5d;}.cls-6{fill:#232b67;}.cls-7{fill:#37657e;}</style></defs><title>co-icon</title><path id="Fill-1" class="cls-1" d="M34.72,50a24.84,24.84,0,0,1-2.07-3l-.11-.16c-.45-.82-.88-1.66-1.26-2.53L31,43.58A24.72,24.72,0,0,1,29.29,33.3a24.39,24.39,0,0,1,3.19-10.85,1,1,0,0,1,.06-.16c.53-.85,1.07-1.68,1.67-2.48l-.89-1.58c-1.95-3.48-2.94-5.16-4.91-8.39-2,3.29-2.95,5-4.9,8.53s-2.93,5.18-4.85,8.85a32.05,32.05,0,0,1,4-.81c-.41,1-.62,1.5-1,2.52-2.33,4.61-4.54,9.3-6.62,14a33.51,33.51,0,0,1,4.14-1.27C17,46.77,15,51.86,13,57c10.8-3.73,19.62-3.78,30.45-.1a25.45,25.45,0,0,1-6.25-4.17A24.62,24.62,0,0,1,34.72,50" transform="translate(-13.04 -9.84)"/><path id="Fill-3" class="cls-2" d="M54,22.64A12,12,0,0,0,44.8,27l-.06.07A12,12,0,0,0,42,34.67V35l7.29-6.36,5,4.34,5-4.34,6.81,6a11.71,11.71,0,0,0-.93-4.55A12,12,0,0,0,54,22.64" transform="translate(-13.04 -9.84)"/><path id="Fill-5" class="cls-3" d="M32.48,22.45A24.39,24.39,0,0,0,29.29,33.3,24.72,24.72,0,0,0,31,43.58l.31.78,9.43-8.22c0-.17,0-.33-.05-.5s0-.62,0-1a13.44,13.44,0,0,1,3.07-8.53l.06-.07a13.4,13.4,0,0,1,22.66,3.44h0q5-2,10-4c.22-.1.28-.16.17-.41-.41-.95-.88-1.88-1.37-2.8L75,22.07a24.42,24.42,0,0,0-19.44-12,22.51,22.51,0,0,0-7.22.56,24.46,24.46,0,0,0-13.85,8.79c-.11.13-.21.27-.31.4-.6.8-1.14,1.63-1.67,2.48a1,1,0,0,0-.06.16" transform="translate(-13.04 -9.84)"/><path id="Fill-7" class="cls-4" d="M49.3,28.65,42,35c0,.18,0,.36,0,.52a12.1,12.1,0,0,0,1.69,5.36c.21.33.38.59.55.82l10-8.72Z" transform="translate(-13.04 -9.84)"/><path id="Fill-9" class="cls-5" d="M42.57,41.63a13.43,13.43,0,0,1-1.86-5.49l-9.43,8.22c.38.87.81,1.71,1.26,2.53l.11.16a24.84,24.84,0,0,0,2.07,3l.36-.31,8.15-7.11,0,0c-.2-.27-.4-.56-.63-.94" transform="translate(-13.04 -9.84)"/><path id="Fill-11" class="cls-6" d="M76.25,43.64,66.46,39.7h0a13.09,13.09,0,0,1-1.4,2.6,13.41,13.41,0,0,1-21.83.31l-8.15,7.12-.36.31a24.62,24.62,0,0,0,2.52,2.69,25.45,25.45,0,0,0,6.25,4.17,24.73,24.73,0,0,0,9.74,2.28,23.42,23.42,0,0,0,7.48-1,24.63,24.63,0,0,0,12-7.83c.21-.25.42-.51.62-.77a30.29,30.29,0,0,0,1.84-2.73,28.52,28.52,0,0,0,1.31-2.66c0-.09.06-.16.08-.21l0-.08,0-.12c0-.07-.14-.1-.32-.18" transform="translate(-13.04 -9.84)"/><path id="Fill-13" class="cls-7" d="M54.27,33l9.55,8.33.15.13a11.54,11.54,0,0,0,1.21-2.27,11.92,11.92,0,0,0,.88-4.51V34.6l-6.81-6Z" transform="translate(-13.04 -9.84)"/><path id="Fill-15" class="cls-6" d="M54.27,33l-10,8.72,0,0a12,12,0,0,0,19.61-.24l0-.06-.15-.13Z" transform="translate(-13.04 -9.84)"/></svg>