<?xml version="1.0" encoding="UTF-8"?>
<svg width="96px" height="71px" viewBox="0 0 96 71" version="1.1" xmlns="http://www.w3.org/2000/svg" xmlns:xlink="http://www.w3.org/1999/xlink">
    <!-- Generator: Sketch 54.1 (76490) - https://sketchapp.com -->
    <title>CO LOGO</title>
    <desc>Created with Sketch.</desc>
    <defs>
        <polygon id="path-1" points="0 70.0344465 95.7125531 70.0344465 95.7125531 0 0 0"></polygon>
    </defs>
    <g id="Prototype" stroke="none" stroke-width="1" fill="none" fill-rule="evenodd">
        <g id="R004-01-Home_1280" transform="translate(-102.000000, -20.000000)">
            <g id="HEADER" transform="translate(102.000000, 20.000000)">
                <g id="CO-LOGO" transform="translate(0.000000, 0.000000)">
                    <path d="M34.7189152,40.1947089 C33.9614884,39.2542497 33.2735048,38.2547638 32.6549644,37.2056757 C32.6202428,37.1560734 32.5760968,37.0965507 32.5408792,37.0469484 C32.0909865,36.2205745 31.6599428,35.3842801 31.2839575,34.5182243 C31.1753285,34.2607885 31.0662035,33.9983925 30.967495,33.7359964 C29.6758517,30.4250445 29.1212982,27.0054635 29.2944102,23.4569166 C29.4972835,19.5914112 30.5716688,15.968957 32.4818525,12.6084027 C32.4967332,12.5588004 32.5116138,12.4997737 32.5408792,12.4501714 C33.0701355,11.5999884 33.6098082,10.7661742 34.2090038,9.96956159 C33.932223,9.47353882 33.6400656,8.95122685 33.3191389,8.38080067 C31.3653052,4.90368107 30.380204,3.22762014 28.4144658,0 C26.4487276,3.28416674 25.4636263,4.98850097 23.5097927,8.52216716 C21.5529829,11.939268 20.5787941,13.7100693 18.658194,17.3776616 C20.2390185,16.9659627 21.0391033,16.8027712 22.646217,16.5607121 C22.2369983,17.5636702 22.0331329,18.0686213 21.6254022,19.0824919 C19.3010395,23.6930235 17.0867939,28.3834148 15.0054823,33.1085276 C16.6388853,32.505364 17.4697234,32.2514003 19.1457844,31.8377173 C17.0446319,36.9234387 15.0154028,42.0170965 13.0412322,47.1534123 C23.8396478,43.4272893 32.6633968,43.378183 43.4861176,47.0576799 C41.2609594,46.0190082 39.1781598,44.6296484 37.242679,42.8821602 C36.327517,42.0508261 35.4907266,41.1500487 34.7189152,40.1947089" id="Fill-1" fill="#235D38"></path>
                    <path d="M54.0354802,12.7993715 C50.4527077,12.7993715 47.0857052,14.3772199 44.7970561,17.1286582 L44.7350533,17.1976053 C42.9826048,19.324055 42.0069281,22.0412677 42.0069281,24.8279236 C42.0069281,24.9449849 42.0099042,25.054606 42.0128803,25.163731 L49.2989588,18.8096793 L54.2730751,23.1498786 L59.2466954,18.8096793 L66.0565919,24.7520321 C66.0471675,23.1682314 65.7376493,21.6375051 65.1329975,20.2010232 C63.2634877,15.7035848 58.9084078,12.7993715 54.0354802,12.7993715" id="Fill-3" fill="#FFD100"></path>
                    <path d="M32.4817533,12.6085019 C30.5715696,15.9685601 29.4971843,19.5915104 29.294807,23.4570158 C29.121199,27.0050667 29.6757525,30.4251437 30.9673958,33.7360956 C31.0661043,33.9984917 31.1752293,34.2608877 31.2838583,34.5178275 L40.711763,26.2992263 C40.6934102,26.1300825 40.6730732,25.9609388 40.6611687,25.791795 C40.6368636,25.4956694 40.624959,25.1777188 40.624959,24.8275268 C40.624959,21.7214322 41.712737,18.6912291 43.6878996,16.2964312 L43.7513905,16.2250039 C46.2865629,13.176944 50.0409592,11.4175513 54.0354306,11.4175513 C59.4683679,11.4175513 64.3249268,14.6560839 66.4077264,19.6678979 C66.4087185,19.669882 66.4092145,19.6723621 66.4102065,19.6743462 C69.7345511,18.3271484 73.0504633,16.9868949 76.3753039,15.6520976 C76.5980182,15.5578533 76.6625011,15.4938663 76.5489119,15.2413908 C76.1426693,14.2959714 75.6674794,13.3654327 75.177905,12.4502707 C75.1332629,12.370907 75.0836606,12.2915434 75.0340584,12.2270604 C70.5450523,5.00645699 64.0620348,1.00305724 55.5944301,0.215869108 C53.1639186,-0.00684511418 50.7537439,0.215869108 48.3733307,0.779846994 C42.7464484,2.10621187 38.1240122,5.04117858 34.5159426,9.56490622 C34.4102898,9.69784032 34.3105892,9.83424658 34.2089045,9.9696608 C33.609709,10.7662734 33.0700363,11.5995916 32.541276,12.4502707 C32.5115146,12.4993769 32.496634,12.5588996 32.4817533,12.6085019" id="Fill-5" fill="#C32032"></path>
                    <path d="M49.299058,18.8097785 L42.0129795,25.1638302 C42.0179398,25.3453745 42.0253801,25.5209666 42.0392688,25.6871342 C42.1707148,27.5749969 42.7570137,29.4241697 43.7336825,31.043188 C43.9415161,31.3770114 44.1131399,31.6334551 44.2793076,31.8606336 L54.2726782,23.1499778 L49.299058,18.8097785 Z" id="Fill-7" fill="#7A853A"></path>
                    <path d="M42.5707571,31.7903967 C41.5504383,30.1004472 40.9214814,28.2205209 40.7116638,26.2989287 L31.2842551,34.5180259 C31.6602404,35.3840817 32.0907881,36.2208721 32.5411768,37.047246 C32.5758984,37.0963523 32.6200444,37.155875 32.654766,37.2054773 C33.2738024,38.2545654 33.961786,39.2545473 34.7187167,40.1945105 L35.0798213,39.8830082 L43.2344356,32.7705377 C43.2225311,32.754169 43.2096345,32.7392883 43.1977299,32.7224235 C43.002297,32.4590354 42.8014077,32.1614218 42.5707571,31.7903967" id="Fill-9" fill="#6C3A5D"></path>
                    <path d="M76.2518935,33.8004298 C72.9910398,32.4770411 69.7301861,31.169525 66.4648683,29.8520886 C66.4648683,29.8530806 66.4643722,29.8535766 66.4638762,29.8545687 C66.1007875,30.7598102 65.6280778,31.6352904 65.0601318,32.4527359 C62.5576969,36.0746942 58.4352517,38.2378495 54.0355298,38.2378495 C49.7856067,38.2378495 45.7529416,36.1947317 43.234634,32.7701905 L35.0800197,39.883157 L34.7189152,40.1946593 C35.4907266,41.1499991 36.327517,42.0507765 37.242679,42.8821106 C39.1781598,44.6295988 41.2614555,46.0189586 43.4861176,47.0576303 C46.4786229,48.4549264 49.7280681,49.2143373 53.2285007,49.3309026 C55.7671452,49.425147 58.2616437,49.0933077 60.70654,48.3706026 C65.4822472,46.9653701 69.4861429,44.3468659 72.7182273,40.5463394 C72.931021,40.2938638 73.1388546,40.036428 73.3417279,39.774032 C74.0049103,38.9079762 74.60857,37.9923182 75.1780042,37.0468988 C75.652698,36.1808431 76.1080469,35.2999066 76.4894884,34.3847446 C76.5187537,34.2905003 76.5490111,34.2260173 76.568852,34.1764151 L76.5981174,34.0975474 L76.568852,33.9735417 C76.5187537,33.9095548 76.4250054,33.8797934 76.2518935,33.8004298" id="Fill-11" fill="#232B67"></path>
                    <path d="M54.2728271,23.1499778 L63.8247375,31.4791921 L63.9666,31.6012137 C64.4561745,30.8864449 64.8658893,30.1255459 65.1823518,29.3363737 C65.7641865,27.9088202 66.058824,26.3929746 66.058824,24.8275268 C66.058824,24.8027256 66.0568399,24.7774285 66.0568399,24.7521313 L59.2464473,18.8097785 L54.2728271,23.1499778 Z" id="Fill-13" fill="#37657E"></path>
                    <path d="M54.2728271,23.1499778 L44.2794564,31.8606336 C44.2898729,31.8745222 44.3007854,31.8903949 44.3112018,31.9042836 C46.5710816,35.00641 50.2054404,36.8560788 54.0352322,36.8560788 C57.9815893,36.8560788 61.678447,34.9156378 63.9244381,31.6652006 C63.9388227,31.6443676 63.9522153,31.6225426 63.9666,31.6012137 L63.8247375,31.4791921 L54.2728271,23.1499778 Z" id="Fill-15" fill="#232B67"></path>
                    <mask id="mask-2" fill="white">
                        <use xlink:href="#path-1"></use>
                    </mask>
                    <g id="Clip-18"></g>
                    <polygon id="Fill-17" fill="#231F20" mask="url(#mask-2)" points="5.63928284 55.3015783 90.0797185 55.3015783 90.0797185 54.6572447 5.63928284 54.6572447"></polygon>
                    <path d="M4.83572595,62.5169239 C5.48303566,62.5169239 6.13133742,62.7545188 6.6189278,63.1905228 C6.71168406,63.283775 6.85701873,63.283775 6.94977499,63.1905228 L7.98100632,62.1196096 C8.08566712,62.0129647 8.08566712,61.8567175 7.96711768,61.7480886 C7.06882045,60.9326271 6.09215162,60.5209282 4.77025095,60.5209282 C2.12595358,60.5209282 0,62.6473778 0,65.2911792 C0,67.9349805 2.12595358,70.0341489 4.77025095,70.0341489 C5.94632093,70.0341489 7.08171704,69.6259221 7.98100632,68.7529221 C8.07475462,68.6601658 8.08566712,68.49003 7.99291086,68.3952897 L6.9631676,67.2990793 C6.88380396,67.2073151 6.71168406,67.2073151 6.6189278,67.2871748 C6.14522606,67.6963936 5.468651,67.9215879 4.84862255,67.9215879 C3.35609004,67.9215879 2.24499904,66.703852 2.24499904,65.2376087 C2.24499904,63.7589649 3.34269743,62.5169239 4.83572595,62.5169239" id="Fill-19" fill="#231F20" mask="url(#mask-2)"></path>
                    <path d="M16.5286194,67.9227784 C15.0886654,67.9227784 13.9001948,66.7338118 13.9001948,65.2908816 C13.9001948,63.8385269 15.0886654,62.6356717 16.5286194,62.6356717 C17.9839502,62.6356717 19.1714287,63.8385269 19.1714287,65.2908816 C19.1714287,66.7338118 17.9839502,67.9227784 16.5286194,67.9227784 M16.5286194,60.5196386 C13.8853141,60.5196386 11.7851537,62.6475762 11.7851537,65.2908816 C11.7851537,67.9346829 13.8853141,70.0343473 16.5286194,70.0343473 C19.1714287,70.0343473 21.2854778,67.9346829 21.2854778,65.2908816 C21.2854778,62.6475762 19.1714287,60.5196386 16.5286194,60.5196386" id="Fill-20" fill="#231F20" mask="url(#mask-2)"></path>
                    <path d="M30.9585666,67.9610713 L27.7706282,67.9610713 L27.7706282,60.9051475 C27.7706282,60.7702293 27.6520788,60.65416 27.5201367,60.65416 L25.9462565,60.65416 C25.8004258,60.65416 25.695765,60.7702293 25.695765,60.9051475 L25.695765,69.6520129 C25.695765,69.783459 25.8004258,69.9025044 25.9462565,69.9025044 L30.9585666,69.9025044 C31.1039012,69.9025044 31.2100501,69.783459 31.2100501,69.6520129 L31.2100501,68.2120589 C31.2100501,68.0791247 31.1039012,67.9610713 30.9585666,67.9610713" id="Fill-21" fill="#231F20" mask="url(#mask-2)"></path>
                    <path d="M39.5900075,67.9227784 C38.1485654,67.9227784 36.9595988,66.7338118 36.9595988,65.2908816 C36.9595988,63.8385269 38.1485654,62.6356717 39.5900075,62.6356717 C41.0438503,62.6356717 42.2352969,63.8385269 42.2352969,65.2908816 C42.2352969,66.7338118 41.0438503,67.9227784 39.5900075,67.9227784 M39.5900075,60.5196386 C36.9457102,60.5196386 34.8460458,62.6475762 34.8460458,65.2908816 C34.8460458,67.9346829 36.9457102,70.0343473 39.5900075,70.0343473 C42.2352969,70.0343473 44.3478579,67.9346829 44.3478579,65.2908816 C44.3478579,62.6475762 42.2352969,60.5196386 39.5900075,60.5196386" id="Fill-22" fill="#231F20" mask="url(#mask-2)"></path>
                    <path d="M53.0599026,64.6041877 L51.1040848,64.6041877 L51.1040848,62.5432131 L53.0599026,62.5432131 C53.6020555,62.5432131 54.0638527,62.9916176 54.0638527,63.5461711 C54.0638527,64.1037007 53.6020555,64.6041877 53.0599026,64.6041877 L53.0599026,64.6041877 Z M54.1561129,66.1646753 C55.3058937,65.6999019 56.1104426,64.7222411 56.1104426,63.5074813 C56.1104426,61.9360812 54.8153272,60.6538623 53.2330145,60.6538623 L49.2792171,60.6538623 C49.1309062,60.6538623 49.0277335,60.7704277 49.0277335,60.9043538 L49.0277335,69.6522114 C49.0277335,69.7831614 49.1309062,69.9027028 49.2792171,69.9027028 L50.8521052,69.9027028 C50.9825592,69.9027028 51.1040848,69.7831614 51.1040848,69.6522114 L51.1040848,66.2832247 L52.0152786,66.2832247 L53.9031413,69.7831614 C53.9274464,69.8367318 54.0097862,69.9027028 54.114447,69.9027028 L55.8703676,69.9027028 C56.0955619,69.9027028 56.1878222,69.6948693 56.0955619,69.5207653 L54.1561129,66.1646753 Z" id="Fill-23" fill="#231F20" mask="url(#mask-2)"></path>
                    <path d="M77.3015768,67.9470339 L76.0327506,67.9470339 L76.0327506,62.5954443 L77.3015768,62.5954443 C78.7926213,62.5954443 79.8789111,63.7695301 79.8789111,65.2635507 C79.8789111,66.7709639 78.7926213,67.9470339 77.3015768,67.9470339 M77.4335189,60.6540111 L74.210859,60.6540111 C74.0789169,60.6540111 73.971776,60.7700805 73.971776,60.9045026 L73.971776,69.6513681 C73.971776,69.7833102 74.0789169,69.9013636 74.210859,69.9013636 L77.4335189,69.9013636 C79.984068,69.9013636 82.0708358,67.8294765 82.0708358,65.2635507 C82.0708358,62.7273863 79.984068,60.6540111 77.4335189,60.6540111" id="Fill-24" fill="#231F20" mask="url(#mask-2)"></path>
                    <path d="M90.9571828,67.9227784 C89.5147486,67.9227784 88.325782,66.7338118 88.325782,65.2908816 C88.325782,63.8385269 89.5147486,62.6356717 90.9571828,62.6356717 C92.4095375,62.6356717 93.5985041,63.8385269 93.5985041,65.2908816 C93.5985041,66.7338118 92.4095375,67.9227784 90.9571828,67.9227784 M90.9571828,60.5196386 C88.3118934,60.5196386 86.210741,62.6475762 86.210741,65.2908816 C86.210741,67.9346829 88.3118934,70.0343473 90.9571828,70.0343473 C93.5985041,70.0343473 95.7125531,67.9346829 95.7125531,65.2908816 C95.7125531,62.6475762 93.5985041,60.5196386 90.9571828,60.5196386" id="Fill-25" fill="#231F20" mask="url(#mask-2)"></path>
                    <path d="M63.7384295,66.9607918 L64.9412847,64.1905047 L66.1565405,66.9607918 L63.7384295,66.9607918 Z M65.2379063,60.6667589 C65.1987205,60.5859072 65.1089404,60.5199362 65.0156881,60.5199362 L64.882754,60.5199362 C64.7885097,60.5199362 64.6967455,60.5859072 64.6560716,60.6667589 L60.5197378,69.556975 C60.43839,69.731575 60.5450349,69.9017108 60.7439401,69.9017108 L62.1977828,69.9017108 C62.4616669,69.9017108 62.5802164,69.8208591 62.6719806,69.5852483 L63.1476664,68.5282238 L66.7492877,68.5282238 L67.2229895,69.5713596 C67.3579076,69.8575648 67.4119741,69.9017108 67.6847866,69.9017108 L69.1510299,69.9017108 C69.3499351,69.9017108 69.45658,69.731575 69.3757283,69.556975 L65.2379063,60.6667589 Z" id="Fill-26" fill="#231F20" mask="url(#mask-2)"></path>
                </g>
            </g>
        </g>
    </g>
</svg>